<svg xmlns="http://www.w3.org/2000/svg" width="1200" height="630" viewBox="0 0 1200 630">
  <rect width="1200" height="630" fill="#FFF8F1"/>
  <circle cx="1110" cy="-60" r="330" fill="#F2CED6"/>
  <circle cx="30" cy="700" r="260" fill="#F1D7AB"/>
  <g transform="translate(105 95)">
    <rect width="70" height="70" rx="20" fill="#7A244F"/>
    <path d="M35 54 17 36.8A12.3 12.3 0 0 1 34.3 19l.7.8.7-.8A12.3 12.3 0 0 1 53 36.8L35 54Z" fill="#FFF8F1"/>
    <circle cx="57" cy="10" r="7" fill="#C99436"/>
    <text x="92" y="55" fill="#7A244F" font-family="Georgia,serif" font-weight="700" font-size="58">Vely</text>
  </g>
  <text x="105" y="310" fill="#251C22" font-family="Georgia,serif" font-weight="700" font-size="72">Meet people who</text>
  <text x="105" y="395" fill="#7A244F" font-family="Georgia,serif" font-style="italic" font-weight="700" font-size="72">match your vibe.</text>
  <text x="105" y="475" fill="#74656D" font-family="Arial,sans-serif" font-size="28">Social discovery for singles and couples.</text>
  <g transform="translate(900 180) rotate(7)">
    <rect width="205" height="365" rx="42" fill="#251C22"/>
    <rect x="9" y="9" width="187" height="347" rx="35" fill="#7A244F"/>
    <circle cx="102" cy="154" r="68" fill="#E58CA0"/>
    <text x="102" y="172" text-anchor="middle" fill="#FFF8F1" font-family="Georgia,serif" font-size="48">AS</text>
    <rect x="31" y="250" width="143" height="13" rx="6" fill="#FFF8F1" opacity=".9"/>
    <rect x="53" y="278" width="98" height="9" rx="4" fill="#FFF8F1" opacity=".5"/>
    <circle cx="102" cy="322" r="19" fill="#FFF8F1"/>
    <path d="M102 333 93 324a6 6 0 0 1 9-8 6 6 0 0 1 9 8l-9 9Z" fill="#7A244F"/>
  </g>
</svg>
